<svg width="276" height="56" viewBox="0 0 276 56" fill="none" xmlns="http://www.w3.org/2000/svg">
<path d="M260.814 45.9788C257.473 45.9788 254.596 45.3021 252.185 43.9485C249.788 42.5808 247.941 40.6492 246.644 38.1536C245.347 35.6438 244.698 32.6759 244.698 29.2497C244.698 25.908 245.347 22.9753 246.644 20.4515C247.941 17.9277 249.767 15.9608 252.122 14.5508C254.49 13.1409 257.268 12.4359 260.455 12.4359C262.598 12.4359 264.593 12.7813 266.44 13.4722C268.301 14.149 269.922 15.1712 271.304 16.5389C272.7 17.9065 273.786 19.6267 274.561 21.6993C275.337 23.7579 275.724 26.1689 275.724 28.9324V31.4069H248.294V25.8235H267.244C267.244 24.5263 266.962 23.3772 266.398 22.3761C265.834 21.375 265.051 20.5925 264.05 20.0285C263.063 19.4504 261.914 19.1614 260.603 19.1614C259.235 19.1614 258.022 19.4786 256.965 20.1131C255.922 20.7335 255.104 21.5724 254.512 22.6299C253.919 23.6733 253.616 24.8365 253.602 26.1195V31.428C253.602 33.0354 253.898 34.4242 254.49 35.5945C255.097 36.7647 255.95 37.6671 257.05 38.3016C258.149 38.9361 259.454 39.2533 260.962 39.2533C261.963 39.2533 262.88 39.1123 263.712 38.8303C264.543 38.5483 265.256 38.1254 265.848 37.5614C266.44 36.9974 266.891 36.3065 267.201 35.4887L275.534 36.0386C275.111 38.0408 274.244 39.7891 272.933 41.2837C271.636 42.7641 269.958 43.9203 267.899 44.7522C265.855 45.5699 263.493 45.9788 260.814 45.9788Z" fill="white"/>
<path d="M242.872 12.8589V19.6267H223.309V12.8589H242.872ZM227.75 5.0759H236.76V35.3618C236.76 36.1937 236.887 36.8423 237.14 37.3076C237.394 37.7588 237.747 38.076 238.198 38.2593C238.663 38.4426 239.199 38.5343 239.805 38.5343C240.228 38.5343 240.651 38.499 241.074 38.4285C241.497 38.3439 241.821 38.2805 242.047 38.2382L243.464 44.9425C243.013 45.0835 242.378 45.2457 241.561 45.429C240.743 45.6264 239.749 45.7462 238.579 45.7885C236.407 45.8731 234.504 45.5841 232.868 44.9214C231.247 44.2587 229.985 43.2294 229.082 41.8336C228.18 40.4377 227.736 38.6753 227.75 36.5462V5.0759Z" fill="white"/>
<path d="M221.561 22.1223L213.313 22.6299C213.172 21.9249 212.869 21.2904 212.404 20.7264C211.939 20.1484 211.325 19.6901 210.564 19.3517C209.817 18.9992 208.921 18.823 207.878 18.823C206.482 18.823 205.305 19.1191 204.346 19.7113C203.387 20.2894 202.908 21.0648 202.908 22.0377C202.908 22.8132 203.218 23.4688 203.838 24.0046C204.459 24.5404 205.523 24.9704 207.032 25.2947L212.911 26.4791C216.07 27.1277 218.424 28.171 219.975 29.6092C221.526 31.0474 222.302 32.9367 222.302 35.2772C222.302 37.4063 221.674 39.2745 220.419 40.8818C219.179 42.4892 217.473 43.744 215.301 44.6464C213.144 45.5347 210.655 45.9788 207.836 45.9788C203.535 45.9788 200.109 45.0835 197.557 43.2929C195.019 41.4881 193.531 39.0348 193.094 35.9329L201.956 35.4676C202.224 36.7788 202.872 37.7799 203.902 38.4708C204.931 39.1476 206.249 39.486 207.857 39.486C209.436 39.486 210.705 39.1828 211.664 38.5765C212.636 37.9562 213.13 37.1595 213.144 36.1867C213.13 35.3689 212.784 34.6992 212.108 34.1775C211.431 33.6417 210.388 33.2328 208.978 32.9508L203.352 31.8299C200.179 31.1954 197.818 30.0956 196.267 28.5306C194.73 26.9655 193.962 24.9704 193.962 22.5453C193.962 20.4586 194.526 18.6609 195.653 17.1522C196.796 15.6435 198.396 14.4803 200.454 13.6625C202.527 12.8448 204.952 12.4359 207.73 12.4359C211.833 12.4359 215.062 13.303 217.416 15.0373C219.785 16.7715 221.167 19.1332 221.561 22.1223Z" fill="white"/>
<path d="M171.631 45.9577C169.558 45.9577 167.711 45.5981 166.09 44.8791C164.468 44.1459 163.185 43.0673 162.24 41.6432C161.31 40.2051 160.845 38.4144 160.845 36.2713C160.845 34.4665 161.176 32.9508 161.839 31.7241C162.501 30.4975 163.404 29.5105 164.546 28.7632C165.688 28.0159 166.985 27.452 168.437 27.0713C169.904 26.6906 171.44 26.4227 173.048 26.2676C174.937 26.0702 176.46 25.8869 177.616 25.7177C178.772 25.5344 179.611 25.2665 180.133 24.914C180.654 24.5615 180.915 24.0399 180.915 23.349V23.2221C180.915 21.8826 180.492 20.8463 179.646 20.1131C178.815 19.3799 177.63 19.0133 176.093 19.0133C174.472 19.0133 173.182 19.3729 172.223 20.092C171.264 20.7969 170.63 21.6852 170.319 22.7568L161.987 22.08C162.41 20.1061 163.241 18.4 164.482 16.9619C165.723 15.5096 167.323 14.3957 169.283 13.6202C171.257 12.8307 173.541 12.4359 176.136 12.4359C177.94 12.4359 179.668 12.6474 181.317 13.0704C182.981 13.4933 184.454 14.149 185.737 15.0373C187.035 15.9255 188.057 17.0676 188.804 18.4635C189.551 19.8452 189.925 21.5019 189.925 23.4336V45.3444H181.381V40.8395H181.127C180.605 41.8547 179.907 42.75 179.033 43.5255C178.159 44.2869 177.108 44.8861 175.882 45.3232C174.655 45.7462 173.238 45.9577 171.631 45.9577ZM174.211 39.7398C175.536 39.7398 176.707 39.4789 177.722 38.9572C178.737 38.4214 179.534 37.7024 180.112 36.8C180.69 35.8976 180.979 34.8754 180.979 33.7333V30.286C180.697 30.4693 180.309 30.6385 179.816 30.7936C179.336 30.9346 178.793 31.0685 178.187 31.1954C177.581 31.3082 176.974 31.4139 176.368 31.5126C175.762 31.5972 175.212 31.6748 174.719 31.7453C173.661 31.9004 172.738 32.1471 171.948 32.4855C171.158 32.8239 170.545 33.2821 170.108 33.8602C169.671 34.4242 169.452 35.1292 169.452 35.9752C169.452 37.2018 169.896 38.1395 170.785 38.788C171.687 39.4225 172.829 39.7398 174.211 39.7398Z" fill="white"/>
<path d="M158.881 12.8589V19.6267H139.317V12.8589H158.881ZM143.759 5.0759H152.768V35.3618C152.768 36.1937 152.895 36.8423 153.149 37.3076C153.403 37.7588 153.755 38.076 154.207 38.2593C154.672 38.4426 155.208 38.5343 155.814 38.5343C156.237 38.5343 156.66 38.499 157.083 38.4285C157.506 38.3439 157.83 38.2805 158.056 38.2382L159.473 44.9425C159.022 45.0835 158.387 45.2457 157.569 45.429C156.752 45.6264 155.758 45.7462 154.587 45.7885C152.416 45.8731 150.512 45.5841 148.877 44.9214C147.255 44.2587 145.994 43.2294 145.091 41.8336C144.189 40.4377 143.745 38.6753 143.759 36.5462V5.0759Z" fill="white"/>
<path d="M117.986 45.3444V12.8589H126.721V18.5269H127.059C127.651 16.5107 128.645 14.9879 130.041 13.9586C131.437 12.9153 133.044 12.3936 134.863 12.3936C135.314 12.3936 135.801 12.4218 136.322 12.4782C136.844 12.5346 137.302 12.6121 137.697 12.7108V20.7053C137.274 20.5784 136.689 20.4656 135.942 20.3669C135.194 20.2682 134.511 20.2189 133.89 20.2189C132.565 20.2189 131.381 20.5079 130.337 21.086C129.308 21.65 128.49 22.4395 127.884 23.4547C127.292 24.4699 126.996 25.6402 126.996 26.9655V45.3444H117.986Z" fill="white"/>
<path d="M99.5785 45.9788C96.2369 45.9788 93.3605 45.3021 90.9495 43.9485C88.5526 42.5808 86.7055 40.6492 85.4084 38.1536C84.1112 35.6438 83.4626 32.6759 83.4626 29.2497C83.4626 25.908 84.1112 22.9753 85.4084 20.4515C86.7055 17.9277 88.5314 15.9608 90.8861 14.5508C93.2548 13.1409 96.0324 12.4359 99.2189 12.4359C101.362 12.4359 103.357 12.7813 105.204 13.4722C107.065 14.149 108.687 15.1712 110.069 16.5389C111.464 17.9065 112.55 19.6267 113.326 21.6993C114.101 23.7579 114.489 26.1689 114.489 28.9324V31.4069H87.058V25.8235H106.008C106.008 24.5263 105.726 23.3772 105.162 22.3761C104.598 21.375 103.815 20.5925 102.814 20.0285C101.827 19.4504 100.678 19.1614 99.367 19.1614C97.9993 19.1614 96.7867 19.4786 95.7293 20.1131C94.6859 20.7335 93.8681 21.5724 93.276 22.6299C92.6838 23.6733 92.3806 24.8365 92.3665 26.1195V31.428C92.3665 33.0354 92.6626 34.4242 93.2548 35.5945C93.8611 36.7647 94.7141 37.6671 95.8139 38.3016C96.9137 38.9361 98.2179 39.2533 99.7265 39.2533C100.728 39.2533 101.644 39.1123 102.476 38.8303C103.308 38.5483 104.02 38.1254 104.612 37.5614C105.204 36.9974 105.655 36.3065 105.966 35.4887L114.298 36.0386C113.875 38.0408 113.008 39.7891 111.697 41.2837C110.4 42.7641 108.722 43.9203 106.664 44.7522C104.619 45.5699 102.257 45.9788 99.5785 45.9788Z" fill="white"/>
<path d="M81.6362 12.8589V19.6267H62.073V12.8589H81.6362ZM66.5143 5.0759H75.524V35.3618C75.524 36.1937 75.6509 36.8423 75.9047 37.3076C76.1585 37.7588 76.511 38.076 76.9622 38.2593C77.4274 38.4426 77.9632 38.5343 78.5695 38.5343C78.9925 38.5343 79.4155 38.499 79.8385 38.4285C80.2615 38.3439 80.5857 38.2805 80.8113 38.2382L82.2283 44.9425C81.7772 45.0835 81.1427 45.2457 80.3249 45.429C79.5071 45.6264 78.5131 45.7462 77.3428 45.7885C75.1715 45.8731 73.2681 45.5841 71.6325 44.9214C70.011 44.2587 68.7491 43.2294 67.8468 41.8336C66.9444 40.4377 66.5002 38.6753 66.5143 36.5462V5.0759Z" fill="url(#paint0_linear_33_3)"/>
<path d="M62.2352 12.8588V19.6266H42.1855V12.8588H62.2352ZM46.775 45.3443V10.5113C46.775 8.15662 47.2332 6.20382 48.1497 4.65287C49.0803 3.10191 50.3492 1.93869 51.9566 1.16322C53.5639 0.387738 55.3898 0 57.4343 0C58.816 0 60.0779 0.105748 61.22 0.317244C62.3762 0.528737 63.2363 0.719082 63.8002 0.888277L62.1929 7.65609C61.8404 7.54329 61.4033 7.43754 60.8816 7.33884C60.374 7.24015 59.8524 7.1908 59.3166 7.1908C57.9912 7.1908 57.0677 7.50099 56.546 8.12137C56.0243 8.72766 55.7635 9.58068 55.7635 10.6805V45.3443H46.775Z" fill="url(#paint1_linear_33_3)"/>
<path d="M9.81332 45.3443H0L14.9526 2.03036H26.754L41.6855 45.3443H31.8722L21.0225 11.9283H20.6841L9.81332 45.3443ZM9.19999 28.3191H32.3797V35.4676H9.19999V28.3191Z" fill="white"/>
<path d="M226 52.5V53.5L113 55.5L0 53.5V52.5H226Z" fill="url(#paint2_linear_33_3)"/>
<path d="M273.321 55.0683C272.786 55.0683 272.326 54.9775 271.94 54.7959C271.556 54.6124 271.26 54.355 271.05 54.0237C270.843 53.6904 270.739 53.3001 270.739 52.8527C270.739 52.4109 270.843 52.0215 271.05 51.6845C271.26 51.3476 271.552 51.0845 271.926 50.8955C272.303 50.7064 272.743 50.6118 273.247 50.6118C273.553 50.6118 273.849 50.6521 274.136 50.7326C274.424 50.8131 274.681 50.9395 274.91 51.1117C275.138 51.2839 275.318 51.5076 275.45 51.7828C275.582 52.0561 275.648 52.3884 275.648 52.7797V53.0773H271.336V52.4483H274.613C274.613 52.2274 274.557 52.0318 274.444 51.8614C274.331 51.6892 274.172 51.5535 273.967 51.4543C273.764 51.3551 273.527 51.3054 273.254 51.3054C272.957 51.3054 272.698 51.3635 272.477 51.4795C272.258 51.5937 272.088 51.7435 271.968 51.9288C271.85 52.1123 271.792 52.3117 271.792 52.527V53.0184C271.792 53.3067 271.855 53.5519 271.982 53.7541C272.112 53.9563 272.292 54.1107 272.523 54.2174C272.753 54.3223 273.023 54.3747 273.331 54.3747C273.531 54.3747 273.714 54.3522 273.879 54.3073C274.043 54.2605 274.186 54.1912 274.306 54.0995C274.426 54.0078 274.518 53.8945 274.581 53.7597L275.581 53.9029C275.501 54.1369 275.357 54.3419 275.15 54.5179C274.945 54.692 274.687 54.8277 274.377 54.9251C274.068 55.0205 273.716 55.0683 273.321 55.0683Z" fill="url(#paint3_linear_33_3)"/>
<path d="M268.982 50.668L267.015 54.9812H265.885L263.914 50.668H265.048L266.422 53.9872H266.478L267.848 50.668H268.982Z" fill="url(#paint4_linear_33_3)"/>
<path d="M260.672 54.9812V50.668H261.728V54.9812H260.672ZM261.205 50.0025C261.022 50.0025 260.864 49.9538 260.732 49.8565C260.603 49.7572 260.538 49.6393 260.538 49.5026C260.538 49.3641 260.603 49.2462 260.732 49.1488C260.864 49.0496 261.022 49 261.205 49C261.389 49 261.546 49.0496 261.675 49.1488C261.807 49.2462 261.873 49.3641 261.873 49.5026C261.873 49.6393 261.807 49.7572 261.675 49.8565C261.546 49.9538 261.389 50.0025 261.205 50.0025Z" fill="url(#paint5_linear_33_3)"/>
<path d="M258.311 50.668V51.3419H255.348V50.668H258.311ZM256.143 49.6346H257.199V53.7148C257.199 53.8776 257.229 54.0003 257.291 54.0826C257.352 54.1631 257.431 54.2184 257.527 54.2483C257.626 54.2764 257.733 54.2904 257.849 54.2904C257.933 54.2904 258.007 54.2858 258.071 54.2764C258.135 54.267 258.184 54.2595 258.219 54.2539L258.41 54.9475C258.349 54.9662 258.262 54.985 258.149 55.0037C258.036 55.0243 257.894 55.0355 257.725 55.0374C257.447 55.0411 257.188 55.0018 256.948 54.9194C256.708 54.8371 256.514 54.7098 256.365 54.5375C256.217 54.3653 256.143 54.1491 256.143 53.8889V49.6346Z" fill="url(#paint6_linear_33_3)"/>
<path d="M250.503 55.0767C250.159 55.0767 249.848 55.0262 249.57 54.9251C249.293 54.8221 249.073 54.6733 248.91 54.4786C248.75 54.2839 248.67 54.0452 248.67 53.7625C248.67 53.5192 248.729 53.3188 248.846 53.1616C248.964 53.0043 249.123 52.8798 249.323 52.7881C249.523 52.6964 249.747 52.6271 249.994 52.5803C250.241 52.5335 250.493 52.4979 250.75 52.4736C251.075 52.4437 251.338 52.4193 251.541 52.4006C251.743 52.38 251.89 52.3472 251.982 52.3023C252.074 52.2574 252.12 52.1844 252.12 52.0833V52.0636C252.12 51.8184 252.033 51.6284 251.859 51.4936C251.687 51.3588 251.43 51.2914 251.089 51.2914C250.733 51.2914 250.453 51.3541 250.248 51.4795C250.046 51.6031 249.906 51.7407 249.828 51.8923L248.836 51.7126C248.954 51.4505 249.125 51.239 249.351 51.078C249.58 50.9151 249.842 50.7972 250.139 50.7242C250.436 50.6493 250.748 50.6118 251.075 50.6118C251.291 50.6118 251.521 50.6324 251.763 50.6736C252.008 50.7129 252.237 50.7859 252.448 50.8927C252.663 50.9994 252.838 51.1519 252.975 51.3504C253.111 51.5469 253.179 51.8025 253.179 52.117V54.9812H252.148V54.3915H252.106C252.038 54.5001 251.935 54.6068 251.799 54.7117C251.662 54.8165 251.487 54.9035 251.272 54.9728C251.058 55.0421 250.802 55.0767 250.503 55.0767ZM250.732 54.4028C251.024 54.4028 251.274 54.3569 251.481 54.2652C251.69 54.1734 251.849 54.0536 251.958 53.9057C252.068 53.756 252.124 53.5959 252.124 53.4256V52.8695C252.086 52.8995 252.013 52.9276 251.905 52.9538C251.799 52.9781 251.677 52.9997 251.541 53.0184C251.404 53.0352 251.271 53.0511 251.142 53.0661C251.012 53.0792 250.904 53.0905 250.817 53.0998C250.612 53.1204 250.425 53.155 250.255 53.2037C250.088 53.2524 249.954 53.3226 249.853 53.4143C249.754 53.5042 249.705 53.624 249.705 53.7738C249.705 53.9816 249.801 54.1388 249.994 54.2455C250.187 54.3503 250.433 54.4028 250.732 54.4028Z" fill="url(#paint7_linear_33_3)"/>
<path d="M244.232 55.0683C243.698 55.0683 243.238 54.9775 242.851 54.7959C242.468 54.6124 242.171 54.355 241.962 54.0237C241.754 53.6904 241.651 53.3001 241.651 52.8527C241.651 52.4109 241.754 52.0215 241.962 51.6845C242.171 51.3476 242.463 51.0845 242.837 50.8955C243.214 50.7064 243.654 50.6118 244.158 50.6118C244.464 50.6118 244.761 50.6521 245.048 50.7326C245.335 50.8131 245.593 50.9395 245.821 51.1117C246.05 51.2839 246.23 51.5076 246.362 51.7828C246.493 52.0561 246.559 52.3884 246.559 52.7797V53.0773H242.248V52.4483H245.525C245.525 52.2274 245.468 52.0318 245.355 51.8614C245.242 51.6892 245.083 51.5535 244.878 51.4543C244.676 51.3551 244.438 51.3054 244.165 51.3054C243.868 51.3054 243.61 51.3635 243.388 51.4795C243.169 51.5937 243 51.7435 242.88 51.9288C242.762 52.1123 242.703 52.3117 242.703 52.527V53.0184C242.703 53.3067 242.767 53.5519 242.894 53.7541C243.023 53.9563 243.203 54.1107 243.434 54.2174C243.665 54.3223 243.934 54.3747 244.243 54.3747C244.443 54.3747 244.625 54.3522 244.79 54.3073C244.955 54.2605 245.097 54.1912 245.217 54.0995C245.337 54.0078 245.429 53.8945 245.493 53.7597L246.492 53.9029C246.412 54.1369 246.269 54.3419 246.061 54.5179C245.857 54.692 245.599 54.8277 245.288 54.9251C244.98 55.0205 244.628 55.0683 244.232 55.0683Z" fill="url(#paint8_linear_33_3)"/>
<path d="M237.079 54.9812V50.668H238.1V51.3532H238.156C238.255 51.121 238.429 50.9385 238.679 50.8056C238.931 50.6708 239.216 50.6034 239.534 50.6034C239.599 50.6034 239.677 50.6053 239.767 50.609C239.858 50.6128 239.93 50.6175 239.982 50.6231V51.4262C239.94 51.4168 239.864 51.4065 239.756 51.3953C239.648 51.3822 239.539 51.3756 239.431 51.3756C239.182 51.3756 238.959 51.4178 238.764 51.502C238.571 51.5844 238.418 51.6995 238.305 51.8474C238.192 51.9934 238.135 52.16 238.135 52.3472V54.9812H237.079Z" fill="url(#paint9_linear_33_3)"/>
<path d="M232.528 55.0683C232.003 55.0683 231.551 54.9737 231.172 54.7847C230.796 54.5937 230.506 54.3307 230.304 53.9956C230.101 53.6605 230 53.2767 230 52.8443C230 52.4062 230.104 52.0196 230.311 51.6845C230.518 51.3476 230.81 51.0845 231.187 50.8955C231.563 50.7064 232.007 50.6118 232.518 50.6118C232.93 50.6118 233.297 50.6727 233.62 50.7944C233.942 50.9142 234.202 51.0827 234.4 51.2998C234.6 51.517 234.719 51.7706 234.757 52.0608H233.729C233.673 51.8586 233.543 51.6845 233.341 51.5385C233.141 51.3925 232.872 51.3195 232.535 51.3195C232.241 51.3195 231.983 51.3813 231.762 51.5048C231.543 51.6265 231.372 51.8006 231.25 52.0271C231.128 52.2518 231.066 52.5176 231.066 52.8246C231.066 53.1391 231.126 53.4106 231.247 53.639C231.367 53.8674 231.536 54.0443 231.755 54.1697C231.976 54.2951 232.236 54.3578 232.535 54.3578C232.736 54.3578 232.917 54.3288 233.079 54.2708C233.244 54.2109 233.382 54.1257 233.492 54.0152C233.605 53.9048 233.684 53.7719 233.729 53.6165H234.757C234.719 53.8954 234.605 54.1444 234.414 54.3635C234.223 54.5825 233.968 54.7547 233.648 54.8801C233.33 55.0056 232.957 55.0683 232.528 55.0683Z" fill="url(#paint10_linear_33_3)"/>
<defs>
<linearGradient id="paint0_linear_33_3" x1="229.963" y1="52.9624" x2="276" y2="52.9624" gradientUnits="userSpaceOnUse">
<stop stop-color="#71F79F"/>
<stop offset="1" stop-color="#00F0FF"/>
</linearGradient>
<linearGradient id="paint1_linear_33_3" x1="3" y1="53" x2="226" y2="53" gradientUnits="userSpaceOnUse">
<stop stop-color="#71F79F"/>
<stop offset="1" stop-color="#00F0FF"/>
</linearGradient>
<linearGradient id="paint2_linear_33_3" x1="3" y1="53" x2="226" y2="53" gradientUnits="userSpaceOnUse">
<stop stop-color="#71F79F"/>
<stop offset="1" stop-color="#00F0FF"/>
</linearGradient>
<linearGradient id="paint3_linear_33_3" x1="229.963" y1="52.9624" x2="276" y2="52.9624" gradientUnits="userSpaceOnUse">
<stop stop-color="#71F79F"/>
<stop offset="1" stop-color="#00F0FF"/>
</linearGradient>
<linearGradient id="paint4_linear_33_3" x1="229.963" y1="52.9624" x2="276" y2="52.9624" gradientUnits="userSpaceOnUse">
<stop stop-color="#71F79F"/>
<stop offset="1" stop-color="#00F0FF"/>
</linearGradient>
<linearGradient id="paint5_linear_33_3" x1="229.963" y1="52.9624" x2="276" y2="52.9624" gradientUnits="userSpaceOnUse">
<stop stop-color="#71F79F"/>
<stop offset="1" stop-color="#00F0FF"/>
</linearGradient>
<linearGradient id="paint6_linear_33_3" x1="229.963" y1="52.9624" x2="276" y2="52.9624" gradientUnits="userSpaceOnUse">
<stop stop-color="#71F79F"/>
<stop offset="1" stop-color="#00F0FF"/>
</linearGradient>
<linearGradient id="paint7_linear_33_3" x1="229.963" y1="52.9624" x2="276" y2="52.9624" gradientUnits="userSpaceOnUse">
<stop stop-color="#71F79F"/>
<stop offset="1" stop-color="#00F0FF"/>
</linearGradient>
<linearGradient id="paint8_linear_33_3" x1="229.963" y1="52.9624" x2="276" y2="52.9624" gradientUnits="userSpaceOnUse">
<stop stop-color="#71F79F"/>
<stop offset="1" stop-color="#00F0FF"/>
</linearGradient>
<linearGradient id="paint9_linear_33_3" x1="229.963" y1="52.9624" x2="276" y2="52.9624" gradientUnits="userSpaceOnUse">
<stop stop-color="#71F79F"/>
<stop offset="1" stop-color="#00F0FF"/>
</linearGradient>
<linearGradient id="paint10_linear_33_3" x1="229.963" y1="52.9624" x2="276" y2="52.9624" gradientUnits="userSpaceOnUse">
<stop stop-color="#71F79F"/>
<stop offset="1" stop-color="#00F0FF"/>
</linearGradient>
</defs>
</svg>
